<?xml version="1.0" standalone="no"?>
<!DOCTYPE svg PUBLIC "-//W3C//DTD SVG 20010904//EN"
 "http://www.w3.org/TR/2001/REC-SVG-20010904/DTD/svg10.dtd">
<svg version="1.0" xmlns="http://www.w3.org/2000/svg"
 width="429.000000pt" height="429.000000pt" viewBox="0 0 429.000000 429.000000"
 preserveAspectRatio="xMidYMid meet">
<metadata>
Created by potrace 1.11, written by Peter Selinger 2001-2013
</metadata>
<g transform="translate(0.000000,429.000000) scale(0.100000,-0.100000)"
fill="#000000" stroke="none">
<path d="M2840 4273 c0 -5 -6 -10 -12 -10 -21 -1 -91 -11 -115 -17 -13 -4 -33
-8 -44 -11 -12 -2 -38 -10 -58 -17 -20 -7 -41 -11 -47 -10 -6 1 -17 -5 -24
-13 -7 -8 -19 -15 -27 -15 -8 0 -28 -8 -46 -17 -18 -9 -34 -18 -37 -18 -26 -5
-191 -108 -223 -140 -9 -8 -19 -15 -23 -15 -4 0 -49 -42 -99 -92 -197 -201
-333 -474 -361 -729 -4 -35 -8 -71 -10 -79 -1 -8 -3 -128 -3 -266 -1 -274 0
-271 -58 -255 -16 5 -38 5 -49 1 -11 -5 -27 -4 -34 0 -7 5 -24 4 -36 0 -14 -6
-26 -5 -29 0 -3 5 -19 5 -37 -1 -20 -5 -36 -5 -41 0 -5 5 -19 6 -31 2 -11 -4
-32 -6 -46 -4 -36 5 -36 5 -140 -1 -52 -3 -106 -8 -120 -11 -47 -10 -95 -18
-112 -19 -10 0 -18 -4 -18 -8 0 -4 -3 -7 -7 -6 -12 4 -158 -46 -161 -54 -2 -5
-8 -8 -13 -8 -5 0 -26 -7 -47 -17 -20 -9 -39 -17 -42 -17 -3 -1 -20 -11 -38
-24 -17 -13 -32 -21 -32 -17 0 3 -6 1 -12 -5 -7 -6 -42 -32 -78 -57 -57 -41
-208 -185 -250 -239 -48 -61 -68 -92 -123 -191 -137 -247 -184 -564 -128 -858
24 -124 120 -364 166 -415 8 -9 15 -21 15 -26 0 -21 200 -254 217 -254 3 0 13
-8 22 -18 9 -10 34 -31 56 -47 22 -17 42 -32 45 -36 8 -9 127 -79 135 -79 4 0
20 -9 36 -21 16 -11 29 -17 29 -13 0 3 6 1 14 -5 12 -10 110 -48 146 -56 8 -2
28 -8 44 -14 16 -7 31 -9 33 -7 3 3 15 1 28 -4 28 -11 92 -21 160 -25 28 -2
50 -4 50 -5 0 -1 10 -3 23 -4 12 -2 22 0 22 3 0 6 22 5 135 -2 22 -2 50 1 62
5 12 4 24 4 27 0 5 -8 159 -7 181 2 8 3 17 2 19 -3 5 -8 70 -5 93 3 7 3 15 2
17 -3 4 -6 49 -7 82 0 5 1 14 0 19 -1 32 -6 225 -4 225 3 0 5 5 5 11 1 16 -9
229 -11 229 -1 0 4 8 4 18 -1 9 -4 28 -7 42 -5 33 4 68 4 104 -1 16 -2 42 0
58 4 16 5 30 5 33 -1 4 -5 11 -9 16 -9 6 0 7 5 3 12 -5 7 -3 8 5 3 16 -9 131
-12 131 -3 0 4 15 2 32 -3 21 -6 34 -5 36 0 2 6 9 8 15 5 24 -9 225 -9 220 0
-4 5 0 6 7 1 17 -11 60 -12 86 -3 12 4 25 4 28 1 8 -9 56 -10 56 -3 0 6 34 5
50 0 14 -5 252 -1 257 4 3 3 12 1 20 -5 9 -9 13 -8 13 0 0 8 6 9 18 3 18 -9
81 -8 106 1 8 3 17 3 20 -1 6 -10 48 -8 64 2 7 4 12 3 12 -1 0 -7 25 -7 95 -1
6 1 20 -2 33 -6 14 -5 22 -3 22 4 0 7 5 8 17 2 9 -5 29 -6 44 -2 17 5 31 4 38
-3 8 -8 11 -8 11 2 0 7 5 9 12 5 7 -4 37 -7 68 -7 30 1 67 2 83 2 l27 1 -1
1547 c0 874 -4 1574 -10 1608 -12 80 -14 93 -39 182 -20 73 -87 242 -100 253
-4 3 -21 31 -39 63 -46 80 -133 190 -200 251 -19 17 -44 40 -55 51 -12 11 -39
34 -61 50 -22 17 -43 34 -47 40 -4 5 -8 6 -8 2 0 -4 -15 3 -32 16 -34 26 -185
107 -198 107 -4 0 -25 8 -46 17 -22 9 -48 18 -59 20 -11 2 -27 6 -35 10 -18 7
-26 9 -65 17 -16 3 -41 8 -55 11 -86 18 -320 28 -342 14 -7 -4 -18 -3 -25 3
-8 6 -13 6 -13 1z m305 -438 c17 -4 39 -8 50 -10 11 -1 21 -4 23 -5 1 -1 5 -3
10 -5 4 -1 19 -7 33 -13 15 -6 35 -12 45 -14 11 -2 21 -5 24 -8 3 -3 25 -15
50 -27 53 -26 93 -51 128 -78 39 -31 172 -167 172 -176 0 -4 6 -14 13 -21 21
-23 70 -111 82 -148 1 -3 7 -18 14 -35 7 -16 14 -34 15 -40 2 -5 8 -28 14 -50
6 -22 14 -65 18 -95 7 -54 13 -2631 6 -2660 -3 -13 -158 -15 -1335 -14 -733 1
-1342 5 -1355 8 -27 7 -60 15 -89 20 -13 3 -27 7 -33 11 -5 3 -18 8 -27 10
-22 4 -136 56 -143 65 -3 4 -19 13 -37 20 -17 8 -29 18 -27 22 3 4 -1 8 -8 8
-29 0 -218 199 -218 229 0 6 -3 11 -7 11 -9 0 -80 142 -88 175 -38 149 -46
205 -41 305 8 169 56 316 146 450 43 63 152 180 169 180 6 0 11 4 11 8 0 16
175 119 193 114 4 -1 7 2 7 6 0 4 10 8 22 9 11 1 24 6 27 10 3 4 15 9 26 10
24 3 60 11 60 13 0 3 39 10 90 16 28 4 251 7 497 7 400 0 448 2 452 16 2 9 4
214 4 456 0 242 3 463 6 490 20 148 87 305 181 424 34 43 159 161 160 151 0
-3 14 7 30 23 16 15 35 27 42 27 6 0 18 6 25 13 13 12 99 51 141 62 4 2 8 3
10 5 3 3 39 10 77 17 19 3 36 8 38 12 3 9 257 6 297 -4z"/>
</g>
</svg>
